<mxfile host="app.diagrams.net" modified="2022-09-19T06:45:10.747Z" agent="5.0 (Windows NT 10.0; Win64; x64) AppleWebKit/537.36 (KHTML, like Gecko) Chrome/105.0.0.0 Safari/537.36" etag="g1Xxyns_pPladjXzMuG4" version="20.2.4" type="github" pages="4">
  <diagram id="uhrIDNIf7qwQoyt4KmRS" name="设备拓扑">
    <mxGraphModel dx="1278" dy="547" grid="1" gridSize="10" guides="1" tooltips="1" connect="1" arrows="1" fold="1" page="1" pageScale="1" pageWidth="827" pageHeight="1169" math="0" shadow="0">
      <root>
        <mxCell id="0" />
        <mxCell id="1" parent="0" />
        <mxCell id="uqoxAxO_kSLx-GGOrnoz-9" value="" style="rounded=0;whiteSpace=wrap;html=1;" parent="1" vertex="1">
          <mxGeometry x="210" y="160" width="120" height="60" as="geometry" />
        </mxCell>
        <mxCell id="uqoxAxO_kSLx-GGOrnoz-10" style="edgeStyle=orthogonalEdgeStyle;rounded=0;orthogonalLoop=1;jettySize=auto;html=1;exitX=0.5;exitY=1;exitDx=0;exitDy=0;entryX=0.5;entryY=0;entryDx=0;entryDy=0;" parent="1" source="uqoxAxO_kSLx-GGOrnoz-11" target="uqoxAxO_kSLx-GGOrnoz-9" edge="1">
          <mxGeometry relative="1" as="geometry" />
        </mxCell>
        <mxCell id="uqoxAxO_kSLx-GGOrnoz-11" value="&lt;span style=&quot;font-family: , &amp;#34;blinkmacsystemfont&amp;#34; , &amp;#34;segoe ui&amp;#34; , &amp;#34;roboto&amp;#34; , &amp;#34;oxygen&amp;#34; , &amp;#34;ubuntu&amp;#34; , &amp;#34;fira sans&amp;#34; , &amp;#34;droid sans&amp;#34; , &amp;#34;helvetica neue&amp;#34; , sans-serif ; font-size: 14px ; text-align: left ; background-color: rgb(255 , 255 , 255)&quot;&gt;/tech-mgmt/v2/business-device-shadow/device-topology/batch-bind&lt;/span&gt;" style="ellipse;whiteSpace=wrap;html=1;" parent="1" vertex="1">
          <mxGeometry x="180" y="60" width="180" height="60" as="geometry" />
        </mxCell>
        <mxCell id="xtwpHz6lCna9C5WMkoP8-6" value="Pool" style="swimlane;childLayout=stackLayout;resizeParent=1;resizeParentMax=0;startSize=20;" parent="1" vertex="1">
          <mxGeometry x="430" y="70" width="360" height="480" as="geometry" />
        </mxCell>
        <mxCell id="xtwpHz6lCna9C5WMkoP8-7" value="Lane 1" style="swimlane;startSize=20;" parent="xtwpHz6lCna9C5WMkoP8-6" vertex="1">
          <mxGeometry y="20" width="120" height="460" as="geometry" />
        </mxCell>
        <mxCell id="xtwpHz6lCna9C5WMkoP8-8" value="Lane 2" style="swimlane;startSize=20;" parent="xtwpHz6lCna9C5WMkoP8-6" vertex="1">
          <mxGeometry x="120" y="20" width="120" height="460" as="geometry" />
        </mxCell>
        <mxCell id="xtwpHz6lCna9C5WMkoP8-9" value="Lane 3" style="swimlane;startSize=20;" parent="xtwpHz6lCna9C5WMkoP8-6" vertex="1">
          <mxGeometry x="240" y="20" width="120" height="460" as="geometry" />
        </mxCell>
      </root>
    </mxGraphModel>
  </diagram>
  <diagram id="Fy0TZetLlRDHLYS9AZ_f" name="设备移动">
    <mxGraphModel dx="1022" dy="468" grid="1" gridSize="10" guides="1" tooltips="1" connect="1" arrows="1" fold="1" page="1" pageScale="1" pageWidth="827" pageHeight="1169" math="0" shadow="0">
      <root>
        <mxCell id="9VwX718VWdQKKwWjlA-h-0" />
        <mxCell id="9VwX718VWdQKKwWjlA-h-1" parent="9VwX718VWdQKKwWjlA-h-0" />
        <mxCell id="8Wzt-M6uHqljCAIrw85x-0" value="设备移动" style="swimlane;childLayout=stackLayout;resizeParent=1;resizeParentMax=0;startSize=20;labelBackgroundColor=default;fontColor=#000000;" vertex="1" parent="9VwX718VWdQKKwWjlA-h-1">
          <mxGeometry x="260" y="150" width="1420" height="740" as="geometry" />
        </mxCell>
        <mxCell id="8Wzt-M6uHqljCAIrw85x-1" value="iot-business-operation" style="swimlane;startSize=20;labelBackgroundColor=default;fontColor=#000000;" vertex="1" parent="8Wzt-M6uHqljCAIrw85x-0">
          <mxGeometry y="20" width="360" height="720" as="geometry" />
        </mxCell>
        <mxCell id="wgynv1m4PrGruyi1vvAI-0" value="/API/tech-mgmt/v2/business-device-shadow/device/batchMove" style="rounded=1;whiteSpace=wrap;html=1;labelBackgroundColor=default;fontColor=#000000;" vertex="1" parent="8Wzt-M6uHqljCAIrw85x-1">
          <mxGeometry x="87" y="30" width="183" height="40" as="geometry" />
        </mxCell>
        <mxCell id="wgynv1m4PrGruyi1vvAI-2" value="     循环遍历" style="swimlane;labelBackgroundColor=default;fontColor=#000000;align=left;" vertex="1" parent="8Wzt-M6uHqljCAIrw85x-1">
          <mxGeometry x="19" y="100" width="321" height="210" as="geometry" />
        </mxCell>
        <mxCell id="wgynv1m4PrGruyi1vvAI-1" value="查询设备信息" style="rounded=0;whiteSpace=wrap;html=1;labelBackgroundColor=default;fontColor=#000000;" vertex="1" parent="wgynv1m4PrGruyi1vvAI-2">
          <mxGeometry x="109.25" y="30" width="100.5" height="30" as="geometry" />
        </mxCell>
        <mxCell id="mZLguYXKBC35zPvuj6p--0" value="查询是否通知边缘网关" style="rounded=0;whiteSpace=wrap;html=1;labelBackgroundColor=default;fontColor=#000000;" vertex="1" parent="wgynv1m4PrGruyi1vvAI-2">
          <mxGeometry x="90" y="110" width="139" height="30" as="geometry" />
        </mxCell>
        <mxCell id="mZLguYXKBC35zPvuj6p--4" value="组装是否通知边缘网关的map" style="rounded=0;whiteSpace=wrap;html=1;labelBackgroundColor=default;fontColor=#000000;strokeColor=#FF0000;" vertex="1" parent="wgynv1m4PrGruyi1vvAI-2">
          <mxGeometry x="90" y="160" width="139" height="30" as="geometry" />
        </mxCell>
        <mxCell id="wgynv1m4PrGruyi1vvAI-3" style="edgeStyle=orthogonalEdgeStyle;rounded=0;orthogonalLoop=1;jettySize=auto;html=1;exitX=0.5;exitY=1;exitDx=0;exitDy=0;fontColor=#000000;" edge="1" parent="8Wzt-M6uHqljCAIrw85x-1" source="wgynv1m4PrGruyi1vvAI-0" target="wgynv1m4PrGruyi1vvAI-1">
          <mxGeometry relative="1" as="geometry" />
        </mxCell>
        <mxCell id="mZLguYXKBC35zPvuj6p--6" value="批量移动设备" style="rounded=0;whiteSpace=wrap;html=1;labelBackgroundColor=default;fontColor=#000000;" vertex="1" parent="8Wzt-M6uHqljCAIrw85x-1">
          <mxGeometry x="108" y="360" width="141" height="35" as="geometry" />
        </mxCell>
        <mxCell id="mZLguYXKBC35zPvuj6p--7" style="edgeStyle=orthogonalEdgeStyle;rounded=0;orthogonalLoop=1;jettySize=auto;html=1;exitX=0.5;exitY=1;exitDx=0;exitDy=0;entryX=0.5;entryY=0;entryDx=0;entryDy=0;fontColor=#000000;" edge="1" parent="8Wzt-M6uHqljCAIrw85x-1" source="mZLguYXKBC35zPvuj6p--4" target="mZLguYXKBC35zPvuj6p--6">
          <mxGeometry relative="1" as="geometry" />
        </mxCell>
        <mxCell id="mZLguYXKBC35zPvuj6p--13" value="查询是否通知边缘网关" style="rounded=0;whiteSpace=wrap;html=1;labelBackgroundColor=default;fontColor=#000000;" vertex="1" parent="8Wzt-M6uHqljCAIrw85x-1">
          <mxGeometry x="110.5" y="460" width="139" height="30" as="geometry" />
        </mxCell>
        <mxCell id="21OzBLQiSDqCvdhEH0k2-18" style="edgeStyle=orthogonalEdgeStyle;rounded=0;orthogonalLoop=1;jettySize=auto;html=1;exitX=0.5;exitY=1;exitDx=0;exitDy=0;fontColor=#000000;strokeColor=#000000;" edge="1" parent="8Wzt-M6uHqljCAIrw85x-1" source="mZLguYXKBC35zPvuj6p--19" target="21OzBLQiSDqCvdhEH0k2-2">
          <mxGeometry relative="1" as="geometry" />
        </mxCell>
        <mxCell id="mZLguYXKBC35zPvuj6p--19" value="查询是否通知边缘网关" style="rounded=0;whiteSpace=wrap;html=1;labelBackgroundColor=default;fontColor=#000000;" vertex="1" parent="8Wzt-M6uHqljCAIrw85x-1">
          <mxGeometry x="110.5" y="530" width="139" height="30" as="geometry" />
        </mxCell>
        <mxCell id="21OzBLQiSDqCvdhEH0k2-17" style="edgeStyle=orthogonalEdgeStyle;rounded=0;orthogonalLoop=1;jettySize=auto;html=1;exitX=0.5;exitY=1;exitDx=0;exitDy=0;entryX=0.5;entryY=0;entryDx=0;entryDy=0;fontColor=#000000;strokeColor=#000000;" edge="1" parent="8Wzt-M6uHqljCAIrw85x-1" source="21OzBLQiSDqCvdhEH0k2-2" target="21OzBLQiSDqCvdhEH0k2-16">
          <mxGeometry relative="1" as="geometry" />
        </mxCell>
        <mxCell id="21OzBLQiSDqCvdhEH0k2-2" value="异步通知边缘网关" style="rounded=0;whiteSpace=wrap;html=1;fontColor=#000000;" vertex="1" parent="8Wzt-M6uHqljCAIrw85x-1">
          <mxGeometry x="119.5" y="600" width="120" height="30" as="geometry" />
        </mxCell>
        <mxCell id="21OzBLQiSDqCvdhEH0k2-16" value="结束" style="rounded=0;whiteSpace=wrap;html=1;labelBackgroundColor=default;fontColor=#000000;strokeColor=#000000;" vertex="1" parent="8Wzt-M6uHqljCAIrw85x-1">
          <mxGeometry x="124.5" y="670" width="110" height="30" as="geometry" />
        </mxCell>
        <mxCell id="8Wzt-M6uHqljCAIrw85x-2" value="device-shadow" style="swimlane;startSize=20;labelBackgroundColor=default;fontColor=#000000;" vertex="1" parent="8Wzt-M6uHqljCAIrw85x-0">
          <mxGeometry x="360" y="20" width="300" height="720" as="geometry" />
        </mxCell>
        <mxCell id="wgynv1m4PrGruyi1vvAI-6" value="/vir-device-mgmt/v2/shadow/device-info/get-by-id/{entityId}" style="rounded=0;whiteSpace=wrap;html=1;labelBackgroundColor=default;fontColor=#000000;" vertex="1" parent="8Wzt-M6uHqljCAIrw85x-2">
          <mxGeometry x="60" y="125" width="200" height="40" as="geometry" />
        </mxCell>
        <mxCell id="mZLguYXKBC35zPvuj6p--8" value="/vir-device-mgmt/v2/shadow/device-info/batch-move-device" style="rounded=0;whiteSpace=wrap;html=1;labelBackgroundColor=default;fontColor=#000000;" vertex="1" parent="8Wzt-M6uHqljCAIrw85x-2">
          <mxGeometry x="54.75" y="362.5" width="210.5" height="30" as="geometry" />
        </mxCell>
        <mxCell id="21OzBLQiSDqCvdhEH0k2-3" value="/vir-device-mgmt/v2/shadow/edgelink-syn/syncDataToEdgelink" style="rounded=0;whiteSpace=wrap;html=1;labelBackgroundColor=#FFFFFF;fontColor=#000000;" vertex="1" parent="8Wzt-M6uHqljCAIrw85x-2">
          <mxGeometry x="80" y="590" width="170" height="50" as="geometry" />
        </mxCell>
        <mxCell id="mZLguYXKBC35zPvuj6p--16" style="edgeStyle=orthogonalEdgeStyle;rounded=0;orthogonalLoop=1;jettySize=auto;html=1;exitX=1;exitY=0.5;exitDx=0;exitDy=0;fontColor=#000000;strokeColor=#000000;entryX=0;entryY=0.5;entryDx=0;entryDy=0;" edge="1" parent="8Wzt-M6uHqljCAIrw85x-0" source="mZLguYXKBC35zPvuj6p--13" target="mZLguYXKBC35zPvuj6p--15">
          <mxGeometry relative="1" as="geometry" />
        </mxCell>
        <mxCell id="mZLguYXKBC35zPvuj6p--17" style="edgeStyle=orthogonalEdgeStyle;rounded=0;orthogonalLoop=1;jettySize=auto;html=1;exitX=0.5;exitY=1;exitDx=0;exitDy=0;fontColor=#000000;strokeColor=#000000;entryX=0.5;entryY=0;entryDx=0;entryDy=0;" edge="1" parent="8Wzt-M6uHqljCAIrw85x-0" source="mZLguYXKBC35zPvuj6p--15" target="mZLguYXKBC35zPvuj6p--19">
          <mxGeometry relative="1" as="geometry">
            <mxPoint x="180" y="550" as="targetPoint" />
          </mxGeometry>
        </mxCell>
        <mxCell id="8Wzt-M6uHqljCAIrw85x-3" value="space-server" style="swimlane;startSize=20;labelBackgroundColor=default;fontColor=#000000;" vertex="1" parent="8Wzt-M6uHqljCAIrw85x-0">
          <mxGeometry x="660" y="20" width="340" height="720" as="geometry" />
        </mxCell>
        <mxCell id="mZLguYXKBC35zPvuj6p--2" value="/space-server/v2/space//is-notify-edgelink" style="rounded=0;whiteSpace=wrap;html=1;labelBackgroundColor=default;fontColor=#000000;strokeColor=#FF0000;" vertex="1" parent="8Wzt-M6uHqljCAIrw85x-3">
          <mxGeometry x="45" y="211.25" width="250" height="27.5" as="geometry" />
        </mxCell>
        <mxCell id="mZLguYXKBC35zPvuj6p--15" value="/space-server/v2/space//is-notify-edgelink" style="rounded=0;whiteSpace=wrap;html=1;labelBackgroundColor=default;fontColor=#000000;strokeColor=#000000;" vertex="1" parent="8Wzt-M6uHqljCAIrw85x-3">
          <mxGeometry x="20" y="461.25" width="250" height="27.5" as="geometry" />
        </mxCell>
        <mxCell id="mZLguYXKBC35zPvuj6p--11" value="device-shadow移动设备详情" style="swimlane;startSize=20;labelBackgroundColor=default;fontColor=#000000;" vertex="1" parent="8Wzt-M6uHqljCAIrw85x-0">
          <mxGeometry x="1000" y="20" width="420" height="720" as="geometry" />
        </mxCell>
        <mxCell id="NzQpMN7uTj-WIkjlHr4e-5" style="edgeStyle=orthogonalEdgeStyle;rounded=0;orthogonalLoop=1;jettySize=auto;html=1;exitX=0.5;exitY=1;exitDx=0;exitDy=0;fontColor=#000000;strokeColor=#000000;" edge="1" parent="mZLguYXKBC35zPvuj6p--11" source="NzQpMN7uTj-WIkjlHr4e-0" target="NzQpMN7uTj-WIkjlHr4e-3">
          <mxGeometry relative="1" as="geometry" />
        </mxCell>
        <mxCell id="NzQpMN7uTj-WIkjlHr4e-0" value="批量移动设备" style="rounded=0;whiteSpace=wrap;html=1;labelBackgroundColor=default;fontColor=#000000;strokeColor=#000000;" vertex="1" parent="mZLguYXKBC35zPvuj6p--11">
          <mxGeometry x="140" y="50" width="150" height="30" as="geometry" />
        </mxCell>
        <mxCell id="NzQpMN7uTj-WIkjlHr4e-6" style="edgeStyle=orthogonalEdgeStyle;rounded=0;orthogonalLoop=1;jettySize=auto;html=1;exitX=0.5;exitY=1;exitDx=0;exitDy=0;fontColor=#000000;strokeColor=#000000;" edge="1" parent="mZLguYXKBC35zPvuj6p--11" source="NzQpMN7uTj-WIkjlHr4e-3" target="NzQpMN7uTj-WIkjlHr4e-4">
          <mxGeometry relative="1" as="geometry" />
        </mxCell>
        <mxCell id="NzQpMN7uTj-WIkjlHr4e-3" value="检验参数，验证不过直接抛出异常" style="rounded=0;whiteSpace=wrap;html=1;labelBackgroundColor=default;fontColor=#000000;strokeColor=#000000;" vertex="1" parent="mZLguYXKBC35zPvuj6p--11">
          <mxGeometry x="155" y="110" width="120" height="35" as="geometry" />
        </mxCell>
        <mxCell id="NzQpMN7uTj-WIkjlHr4e-8" style="edgeStyle=orthogonalEdgeStyle;rounded=0;orthogonalLoop=1;jettySize=auto;html=1;exitX=0.5;exitY=1;exitDx=0;exitDy=0;fontColor=#000000;strokeColor=#000000;" edge="1" parent="mZLguYXKBC35zPvuj6p--11" source="NzQpMN7uTj-WIkjlHr4e-4" target="NzQpMN7uTj-WIkjlHr4e-7">
          <mxGeometry relative="1" as="geometry" />
        </mxCell>
        <mxCell id="NzQpMN7uTj-WIkjlHr4e-4" value="批量查询设备详情" style="rounded=0;whiteSpace=wrap;html=1;labelBackgroundColor=default;fontColor=#000000;strokeColor=#000000;" vertex="1" parent="mZLguYXKBC35zPvuj6p--11">
          <mxGeometry x="150" y="180" width="130" height="30" as="geometry" />
        </mxCell>
        <mxCell id="NzQpMN7uTj-WIkjlHr4e-10" style="edgeStyle=orthogonalEdgeStyle;rounded=0;orthogonalLoop=1;jettySize=auto;html=1;exitX=0.5;exitY=1;exitDx=0;exitDy=0;fontColor=#000000;strokeColor=#000000;" edge="1" parent="mZLguYXKBC35zPvuj6p--11" source="NzQpMN7uTj-WIkjlHr4e-7" target="NzQpMN7uTj-WIkjlHr4e-9">
          <mxGeometry relative="1" as="geometry" />
        </mxCell>
        <mxCell id="NzQpMN7uTj-WIkjlHr4e-7" value="查询目标空间是否有同名设备" style="rounded=0;whiteSpace=wrap;html=1;labelBackgroundColor=default;fontColor=#000000;strokeColor=#000000;" vertex="1" parent="mZLguYXKBC35zPvuj6p--11">
          <mxGeometry x="123.74" y="240" width="183.75" height="30" as="geometry" />
        </mxCell>
        <mxCell id="NzQpMN7uTj-WIkjlHr4e-22" style="edgeStyle=orthogonalEdgeStyle;rounded=0;orthogonalLoop=1;jettySize=auto;html=1;exitX=0.5;exitY=1;exitDx=0;exitDy=0;fontColor=#000000;strokeColor=#000000;" edge="1" parent="mZLguYXKBC35zPvuj6p--11" source="NzQpMN7uTj-WIkjlHr4e-9" target="NzQpMN7uTj-WIkjlHr4e-21">
          <mxGeometry relative="1" as="geometry" />
        </mxCell>
        <mxCell id="NzQpMN7uTj-WIkjlHr4e-9" value="过滤掉目标空间中已存在的同名的设备" style="rounded=0;whiteSpace=wrap;html=1;labelBackgroundColor=default;fontColor=#000000;strokeColor=#000000;" vertex="1" parent="mZLguYXKBC35zPvuj6p--11">
          <mxGeometry x="103.11999999999999" y="300" width="223.75" height="30" as="geometry" />
        </mxCell>
        <mxCell id="NzQpMN7uTj-WIkjlHr4e-24" style="edgeStyle=orthogonalEdgeStyle;rounded=0;orthogonalLoop=1;jettySize=auto;html=1;exitX=0.5;exitY=1;exitDx=0;exitDy=0;fontColor=#000000;strokeColor=#000000;" edge="1" parent="mZLguYXKBC35zPvuj6p--11" source="NzQpMN7uTj-WIkjlHr4e-21" target="NzQpMN7uTj-WIkjlHr4e-23">
          <mxGeometry relative="1" as="geometry" />
        </mxCell>
        <mxCell id="NzQpMN7uTj-WIkjlHr4e-21" value="组装需要更新的设备" style="rounded=0;whiteSpace=wrap;html=1;labelBackgroundColor=default;fontColor=#000000;strokeColor=#000000;" vertex="1" parent="mZLguYXKBC35zPvuj6p--11">
          <mxGeometry x="146.87" y="360" width="136.26" height="30" as="geometry" />
        </mxCell>
        <mxCell id="NzQpMN7uTj-WIkjlHr4e-27" style="edgeStyle=orthogonalEdgeStyle;rounded=0;orthogonalLoop=1;jettySize=auto;html=1;exitX=0.5;exitY=1;exitDx=0;exitDy=0;entryX=0.5;entryY=0;entryDx=0;entryDy=0;fontColor=#000000;strokeColor=#000000;" edge="1" parent="mZLguYXKBC35zPvuj6p--11" source="NzQpMN7uTj-WIkjlHr4e-23" target="NzQpMN7uTj-WIkjlHr4e-26">
          <mxGeometry relative="1" as="geometry" />
        </mxCell>
        <mxCell id="NzQpMN7uTj-WIkjlHr4e-23" value="批量更新设备的空间信息" style="rounded=0;whiteSpace=wrap;html=1;labelBackgroundColor=default;fontColor=#000000;strokeColor=#000000;" vertex="1" parent="mZLguYXKBC35zPvuj6p--11">
          <mxGeometry x="138.42000000000002" y="415" width="153.14" height="35" as="geometry" />
        </mxCell>
        <mxCell id="NzQpMN7uTj-WIkjlHr4e-29" style="edgeStyle=orthogonalEdgeStyle;rounded=0;orthogonalLoop=1;jettySize=auto;html=1;exitX=0.5;exitY=1;exitDx=0;exitDy=0;fontColor=#000000;strokeColor=#000000;" edge="1" parent="mZLguYXKBC35zPvuj6p--11" source="NzQpMN7uTj-WIkjlHr4e-26" target="NzQpMN7uTj-WIkjlHr4e-28">
          <mxGeometry relative="1" as="geometry" />
        </mxCell>
        <mxCell id="NzQpMN7uTj-WIkjlHr4e-26" value="无法移动的设备构造失败返回信息（目标同名设备无法移动）" style="rounded=0;whiteSpace=wrap;html=1;labelBackgroundColor=default;fontColor=#000000;strokeColor=#000000;" vertex="1" parent="mZLguYXKBC35zPvuj6p--11">
          <mxGeometry x="149.2" y="480" width="131.58" height="60" as="geometry" />
        </mxCell>
        <mxCell id="NzQpMN7uTj-WIkjlHr4e-31" style="edgeStyle=orthogonalEdgeStyle;rounded=0;orthogonalLoop=1;jettySize=auto;html=1;exitX=0.5;exitY=1;exitDx=0;exitDy=0;fontColor=#000000;strokeColor=#000000;" edge="1" parent="mZLguYXKBC35zPvuj6p--11" source="NzQpMN7uTj-WIkjlHr4e-28" target="NzQpMN7uTj-WIkjlHr4e-30">
          <mxGeometry relative="1" as="geometry" />
        </mxCell>
        <mxCell id="NzQpMN7uTj-WIkjlHr4e-28" value="&lt;b&gt;循环&lt;/b&gt;发送设备修改信息到kafka&lt;br&gt;topic：iot.device.operator.topic" style="rounded=0;whiteSpace=wrap;html=1;labelBackgroundColor=default;fontColor=#000000;strokeColor=#000000;" vertex="1" parent="mZLguYXKBC35zPvuj6p--11">
          <mxGeometry x="110.61" y="580" width="210" height="50" as="geometry" />
        </mxCell>
        <mxCell id="NzQpMN7uTj-WIkjlHr4e-30" value="结束" style="rounded=0;whiteSpace=wrap;html=1;labelBackgroundColor=default;fontColor=#000000;strokeColor=#000000;" vertex="1" parent="mZLguYXKBC35zPvuj6p--11">
          <mxGeometry x="164.82000000000016" y="680" width="101.58" height="30" as="geometry" />
        </mxCell>
        <mxCell id="wgynv1m4PrGruyi1vvAI-7" style="edgeStyle=orthogonalEdgeStyle;rounded=0;orthogonalLoop=1;jettySize=auto;html=1;exitX=1;exitY=0.5;exitDx=0;exitDy=0;fontColor=#000000;" edge="1" parent="8Wzt-M6uHqljCAIrw85x-0" source="wgynv1m4PrGruyi1vvAI-1" target="wgynv1m4PrGruyi1vvAI-6">
          <mxGeometry relative="1" as="geometry" />
        </mxCell>
        <mxCell id="wgynv1m4PrGruyi1vvAI-9" value="fegin" style="edgeLabel;html=1;align=center;verticalAlign=middle;resizable=0;points=[];fontColor=#000000;" vertex="1" connectable="0" parent="wgynv1m4PrGruyi1vvAI-7">
          <mxGeometry x="-0.2601" y="1" relative="1" as="geometry">
            <mxPoint as="offset" />
          </mxGeometry>
        </mxCell>
        <mxCell id="mZLguYXKBC35zPvuj6p--1" style="edgeStyle=orthogonalEdgeStyle;rounded=0;orthogonalLoop=1;jettySize=auto;html=1;exitX=0.5;exitY=1;exitDx=0;exitDy=0;entryX=0.5;entryY=0;entryDx=0;entryDy=0;fontColor=#000000;" edge="1" parent="8Wzt-M6uHqljCAIrw85x-0" source="wgynv1m4PrGruyi1vvAI-6" target="mZLguYXKBC35zPvuj6p--0">
          <mxGeometry relative="1" as="geometry" />
        </mxCell>
        <mxCell id="mZLguYXKBC35zPvuj6p--3" style="edgeStyle=orthogonalEdgeStyle;rounded=0;orthogonalLoop=1;jettySize=auto;html=1;exitX=1;exitY=0.5;exitDx=0;exitDy=0;fontColor=#000000;strokeColor=#FF0000;" edge="1" parent="8Wzt-M6uHqljCAIrw85x-0" source="mZLguYXKBC35zPvuj6p--0" target="mZLguYXKBC35zPvuj6p--2">
          <mxGeometry relative="1" as="geometry" />
        </mxCell>
        <mxCell id="mZLguYXKBC35zPvuj6p--5" style="edgeStyle=orthogonalEdgeStyle;rounded=0;orthogonalLoop=1;jettySize=auto;html=1;exitX=0.5;exitY=1;exitDx=0;exitDy=0;entryX=1;entryY=0.5;entryDx=0;entryDy=0;fontColor=#000000;strokeColor=#FF0000;" edge="1" parent="8Wzt-M6uHqljCAIrw85x-0" source="mZLguYXKBC35zPvuj6p--2" target="mZLguYXKBC35zPvuj6p--4">
          <mxGeometry relative="1" as="geometry" />
        </mxCell>
        <mxCell id="mZLguYXKBC35zPvuj6p--9" style="edgeStyle=orthogonalEdgeStyle;rounded=0;orthogonalLoop=1;jettySize=auto;html=1;exitX=1;exitY=0.5;exitDx=0;exitDy=0;fontColor=#000000;" edge="1" parent="8Wzt-M6uHqljCAIrw85x-0" source="mZLguYXKBC35zPvuj6p--6" target="mZLguYXKBC35zPvuj6p--8">
          <mxGeometry relative="1" as="geometry" />
        </mxCell>
        <mxCell id="mZLguYXKBC35zPvuj6p--10" value="fegin" style="edgeLabel;html=1;align=center;verticalAlign=middle;resizable=0;points=[];fontColor=#000000;" vertex="1" connectable="0" parent="mZLguYXKBC35zPvuj6p--9">
          <mxGeometry x="-0.2756" y="2" relative="1" as="geometry">
            <mxPoint y="1" as="offset" />
          </mxGeometry>
        </mxCell>
        <mxCell id="21OzBLQiSDqCvdhEH0k2-0" value="" style="edgeStyle=orthogonalEdgeStyle;rounded=0;orthogonalLoop=1;jettySize=auto;html=1;fontColor=#000000;entryX=0;entryY=0.5;entryDx=0;entryDy=0;dashed=1;" edge="1" parent="8Wzt-M6uHqljCAIrw85x-0" source="21OzBLQiSDqCvdhEH0k2-2" target="21OzBLQiSDqCvdhEH0k2-3">
          <mxGeometry relative="1" as="geometry">
            <mxPoint x="30" y="302.5" as="targetPoint" />
          </mxGeometry>
        </mxCell>
        <mxCell id="21OzBLQiSDqCvdhEH0k2-1" value="feign" style="edgeLabel;html=1;align=center;verticalAlign=middle;resizable=0;points=[];fontColor=#000000;" vertex="1" connectable="0" parent="21OzBLQiSDqCvdhEH0k2-0">
          <mxGeometry x="-0.2889" y="1" relative="1" as="geometry">
            <mxPoint as="offset" />
          </mxGeometry>
        </mxCell>
        <mxCell id="21OzBLQiSDqCvdhEH0k2-19" style="edgeStyle=orthogonalEdgeStyle;rounded=0;orthogonalLoop=1;jettySize=auto;html=1;exitX=0.5;exitY=1;exitDx=0;exitDy=0;fontColor=#000000;strokeColor=#000000;" edge="1" parent="8Wzt-M6uHqljCAIrw85x-0" source="mZLguYXKBC35zPvuj6p--8" target="mZLguYXKBC35zPvuj6p--13">
          <mxGeometry relative="1" as="geometry" />
        </mxCell>
        <mxCell id="NzQpMN7uTj-WIkjlHr4e-1" style="edgeStyle=orthogonalEdgeStyle;rounded=0;orthogonalLoop=1;jettySize=auto;html=1;exitX=1;exitY=0.5;exitDx=0;exitDy=0;entryX=0;entryY=0.5;entryDx=0;entryDy=0;fontColor=#000000;strokeColor=#000000;" edge="1" parent="8Wzt-M6uHqljCAIrw85x-0" source="mZLguYXKBC35zPvuj6p--8" target="NzQpMN7uTj-WIkjlHr4e-0">
          <mxGeometry relative="1" as="geometry">
            <Array as="points">
              <mxPoint x="1010" y="398" />
              <mxPoint x="1010" y="85" />
            </Array>
          </mxGeometry>
        </mxCell>
      </root>
    </mxGraphModel>
  </diagram>
  <diagram id="3-OwN3J7G6NU8zAR5Mcc" name="设备新增">
    <mxGraphModel dx="1460" dy="669" grid="1" gridSize="10" guides="1" tooltips="1" connect="1" arrows="1" fold="1" page="1" pageScale="1" pageWidth="827" pageHeight="1169" math="0" shadow="0">
      <root>
        <mxCell id="0" />
        <mxCell id="1" parent="0" />
        <mxCell id="YYtEiXDmxrUHjdfIpiJD-1" value="设备新增" style="swimlane;childLayout=stackLayout;resizeParent=1;resizeParentMax=0;startSize=20;" vertex="1" parent="1">
          <mxGeometry x="190" y="210" width="1180" height="670" as="geometry" />
        </mxCell>
        <mxCell id="YYtEiXDmxrUHjdfIpiJD-19" value="" style="edgeStyle=orthogonalEdgeStyle;rounded=0;orthogonalLoop=1;jettySize=auto;html=1;fontColor=#000000;entryX=0;entryY=0.5;entryDx=0;entryDy=0;dashed=1;" edge="1" parent="YYtEiXDmxrUHjdfIpiJD-1" source="YYtEiXDmxrUHjdfIpiJD-17" target="YYtEiXDmxrUHjdfIpiJD-28">
          <mxGeometry relative="1" as="geometry">
            <mxPoint x="290" y="452.5" as="targetPoint" />
          </mxGeometry>
        </mxCell>
        <mxCell id="YYtEiXDmxrUHjdfIpiJD-20" value="feign" style="edgeLabel;html=1;align=center;verticalAlign=middle;resizable=0;points=[];fontColor=#000000;" vertex="1" connectable="0" parent="YYtEiXDmxrUHjdfIpiJD-19">
          <mxGeometry x="-0.2889" y="1" relative="1" as="geometry">
            <mxPoint as="offset" />
          </mxGeometry>
        </mxCell>
        <mxCell id="YYtEiXDmxrUHjdfIpiJD-2" value="iot-business-operation" style="swimlane;startSize=20;" vertex="1" parent="YYtEiXDmxrUHjdfIpiJD-1">
          <mxGeometry y="20" width="310" height="650" as="geometry" />
        </mxCell>
        <mxCell id="YYtEiXDmxrUHjdfIpiJD-8" value="" style="edgeStyle=orthogonalEdgeStyle;rounded=0;orthogonalLoop=1;jettySize=auto;html=1;fontColor=#000000;" edge="1" parent="YYtEiXDmxrUHjdfIpiJD-2" source="YYtEiXDmxrUHjdfIpiJD-6" target="YYtEiXDmxrUHjdfIpiJD-7">
          <mxGeometry relative="1" as="geometry" />
        </mxCell>
        <mxCell id="YYtEiXDmxrUHjdfIpiJD-6" value="&lt;span style=&quot;font-family: consolas, &amp;quot;lucida console&amp;quot;, &amp;quot;courier new&amp;quot;, monospace; text-align: left; background-color: rgb(255, 255, 255);&quot;&gt;/tech-mgmt/v2/business-device-shadow/device/add&lt;/span&gt;" style="rounded=1;whiteSpace=wrap;html=1;" vertex="1" parent="YYtEiXDmxrUHjdfIpiJD-2">
          <mxGeometry x="70" y="40" width="162.5" height="40" as="geometry" />
        </mxCell>
        <mxCell id="YYtEiXDmxrUHjdfIpiJD-7" value="查询设备模型信息" style="rounded=0;whiteSpace=wrap;html=1;fontColor=#000000;" vertex="1" parent="YYtEiXDmxrUHjdfIpiJD-2">
          <mxGeometry x="91.25" y="120" width="120" height="30" as="geometry" />
        </mxCell>
        <mxCell id="YYtEiXDmxrUHjdfIpiJD-36" style="edgeStyle=orthogonalEdgeStyle;rounded=0;orthogonalLoop=1;jettySize=auto;html=1;exitX=0;exitY=0.5;exitDx=0;exitDy=0;entryX=0.5;entryY=0;entryDx=0;entryDy=0;fontColor=#000000;" edge="1" parent="YYtEiXDmxrUHjdfIpiJD-2" source="YYtEiXDmxrUHjdfIpiJD-15" target="YYtEiXDmxrUHjdfIpiJD-48">
          <mxGeometry relative="1" as="geometry" />
        </mxCell>
        <mxCell id="YYtEiXDmxrUHjdfIpiJD-50" value="是" style="edgeLabel;html=1;align=center;verticalAlign=middle;resizable=0;points=[];fontColor=#000000;" vertex="1" connectable="0" parent="YYtEiXDmxrUHjdfIpiJD-36">
          <mxGeometry x="-0.0442" y="-2" relative="1" as="geometry">
            <mxPoint as="offset" />
          </mxGeometry>
        </mxCell>
        <mxCell id="YYtEiXDmxrUHjdfIpiJD-39" style="edgeStyle=orthogonalEdgeStyle;rounded=0;orthogonalLoop=1;jettySize=auto;html=1;exitX=1;exitY=0.5;exitDx=0;exitDy=0;entryX=0.5;entryY=0;entryDx=0;entryDy=0;fontColor=#000000;" edge="1" parent="YYtEiXDmxrUHjdfIpiJD-2" source="YYtEiXDmxrUHjdfIpiJD-15" target="YYtEiXDmxrUHjdfIpiJD-38">
          <mxGeometry relative="1" as="geometry" />
        </mxCell>
        <mxCell id="YYtEiXDmxrUHjdfIpiJD-51" value="否" style="edgeLabel;html=1;align=center;verticalAlign=middle;resizable=0;points=[];fontColor=#000000;" vertex="1" connectable="0" parent="YYtEiXDmxrUHjdfIpiJD-39">
          <mxGeometry x="0.0082" y="1" relative="1" as="geometry">
            <mxPoint as="offset" />
          </mxGeometry>
        </mxCell>
        <mxCell id="YYtEiXDmxrUHjdfIpiJD-15" value="&lt;span style=&quot;background-color: rgb(248, 249, 250);&quot;&gt;是否存在影子属性&lt;/span&gt;" style="rhombus;whiteSpace=wrap;html=1;labelBackgroundColor=#FFFFFF;fontColor=#000000;" vertex="1" parent="YYtEiXDmxrUHjdfIpiJD-2">
          <mxGeometry x="91.25" y="210" width="130" height="45" as="geometry" />
        </mxCell>
        <mxCell id="YYtEiXDmxrUHjdfIpiJD-47" style="edgeStyle=orthogonalEdgeStyle;rounded=0;orthogonalLoop=1;jettySize=auto;html=1;exitX=0.5;exitY=1;exitDx=0;exitDy=0;fontColor=#000000;" edge="1" parent="YYtEiXDmxrUHjdfIpiJD-2" source="YYtEiXDmxrUHjdfIpiJD-17" target="YYtEiXDmxrUHjdfIpiJD-41">
          <mxGeometry relative="1" as="geometry" />
        </mxCell>
        <mxCell id="YYtEiXDmxrUHjdfIpiJD-17" value="异步通知边缘网关" style="rounded=0;whiteSpace=wrap;html=1;fontColor=#000000;" vertex="1" parent="YYtEiXDmxrUHjdfIpiJD-2">
          <mxGeometry x="116.87" y="510" width="120" height="30" as="geometry" />
        </mxCell>
        <mxCell id="YYtEiXDmxrUHjdfIpiJD-35" value="新增设备信息" style="rounded=0;whiteSpace=wrap;html=1;fontColor=#000000;" vertex="1" parent="YYtEiXDmxrUHjdfIpiJD-2">
          <mxGeometry x="24.380000000000003" y="354.38" width="90" height="30" as="geometry" />
        </mxCell>
        <mxCell id="YYtEiXDmxrUHjdfIpiJD-38" value="新增设备信息" style="rounded=0;whiteSpace=wrap;html=1;fontColor=#000000;" vertex="1" parent="YYtEiXDmxrUHjdfIpiJD-2">
          <mxGeometry x="211.25" y="276.25" width="78.75" height="30" as="geometry" />
        </mxCell>
        <mxCell id="YYtEiXDmxrUHjdfIpiJD-41" value="结束" style="rounded=0;whiteSpace=wrap;html=1;fontColor=#000000;" vertex="1" parent="YYtEiXDmxrUHjdfIpiJD-2">
          <mxGeometry x="137.49" y="600" width="78.75" height="30" as="geometry" />
        </mxCell>
        <mxCell id="YYtEiXDmxrUHjdfIpiJD-49" style="edgeStyle=orthogonalEdgeStyle;rounded=0;orthogonalLoop=1;jettySize=auto;html=1;exitX=0.5;exitY=1;exitDx=0;exitDy=0;fontColor=#000000;" edge="1" parent="YYtEiXDmxrUHjdfIpiJD-2" source="YYtEiXDmxrUHjdfIpiJD-48" target="YYtEiXDmxrUHjdfIpiJD-35">
          <mxGeometry relative="1" as="geometry" />
        </mxCell>
        <mxCell id="YYtEiXDmxrUHjdfIpiJD-48" value="设置影子属性" style="rounded=0;whiteSpace=wrap;html=1;fontColor=#000000;" vertex="1" parent="YYtEiXDmxrUHjdfIpiJD-2">
          <mxGeometry x="30.000000000000007" y="276.25" width="78.75" height="30" as="geometry" />
        </mxCell>
        <mxCell id="YYtEiXDmxrUHjdfIpiJD-3" value="device-shadow" style="swimlane;startSize=20;" vertex="1" parent="YYtEiXDmxrUHjdfIpiJD-1">
          <mxGeometry x="310" y="20" width="290" height="650" as="geometry" />
        </mxCell>
        <mxCell id="YYtEiXDmxrUHjdfIpiJD-27" value="/vir-device-mgmt/v2/shadow//device-info/add-facade" style="rounded=0;whiteSpace=wrap;html=1;labelBackgroundColor=#FFFFFF;fontColor=#000000;" vertex="1" parent="YYtEiXDmxrUHjdfIpiJD-3">
          <mxGeometry x="80" y="266.25" width="202.5" height="50" as="geometry" />
        </mxCell>
        <mxCell id="YYtEiXDmxrUHjdfIpiJD-28" value="/vir-device-mgmt/v2/shadow/edgelink-syn/syncDataToEdgelink" style="rounded=0;whiteSpace=wrap;html=1;labelBackgroundColor=#FFFFFF;fontColor=#000000;" vertex="1" parent="YYtEiXDmxrUHjdfIpiJD-3">
          <mxGeometry x="86.25" y="500" width="170" height="50" as="geometry" />
        </mxCell>
        <mxCell id="YYtEiXDmxrUHjdfIpiJD-29" value="/vir-device-mgmt/v2/shadow/device-type/query-by-id" style="rounded=0;whiteSpace=wrap;html=1;labelBackgroundColor=#FFFFFF;fontColor=#000000;" vertex="1" parent="YYtEiXDmxrUHjdfIpiJD-3">
          <mxGeometry x="60" y="107.5" width="200" height="55" as="geometry" />
        </mxCell>
        <mxCell id="YYtEiXDmxrUHjdfIpiJD-34" value="&lt;span style=&quot;&quot;&gt;/vir-device-mgmt/v2/shadow/device-property/insert-device-shadow-facade&lt;/span&gt;" style="rounded=0;whiteSpace=wrap;html=1;labelBackgroundColor=default;fontColor=#000000;" vertex="1" parent="YYtEiXDmxrUHjdfIpiJD-3">
          <mxGeometry x="20" y="338.75" width="170" height="61.25" as="geometry" />
        </mxCell>
        <mxCell id="YYtEiXDmxrUHjdfIpiJD-10" value="" style="edgeStyle=orthogonalEdgeStyle;rounded=0;orthogonalLoop=1;jettySize=auto;html=1;fontColor=#000000;" edge="1" parent="YYtEiXDmxrUHjdfIpiJD-1" source="YYtEiXDmxrUHjdfIpiJD-7" target="YYtEiXDmxrUHjdfIpiJD-29">
          <mxGeometry relative="1" as="geometry">
            <mxPoint x="290" y="155" as="targetPoint" />
          </mxGeometry>
        </mxCell>
        <mxCell id="YYtEiXDmxrUHjdfIpiJD-11" value="feign" style="edgeLabel;html=1;align=center;verticalAlign=middle;resizable=0;points=[];fontColor=#000000;" vertex="1" connectable="0" parent="YYtEiXDmxrUHjdfIpiJD-10">
          <mxGeometry x="-0.2928" relative="1" as="geometry">
            <mxPoint as="offset" />
          </mxGeometry>
        </mxCell>
        <mxCell id="YYtEiXDmxrUHjdfIpiJD-14" style="edgeStyle=orthogonalEdgeStyle;rounded=0;orthogonalLoop=1;jettySize=auto;html=1;exitX=0.5;exitY=1;exitDx=0;exitDy=0;entryX=0.5;entryY=0;entryDx=0;entryDy=0;fontColor=#000000;" edge="1" parent="YYtEiXDmxrUHjdfIpiJD-1" source="YYtEiXDmxrUHjdfIpiJD-29" target="YYtEiXDmxrUHjdfIpiJD-15">
          <mxGeometry relative="1" as="geometry">
            <mxPoint x="385" y="177.5" as="sourcePoint" />
            <mxPoint x="180" y="235" as="targetPoint" />
          </mxGeometry>
        </mxCell>
        <mxCell id="YYtEiXDmxrUHjdfIpiJD-31" style="edgeStyle=orthogonalEdgeStyle;rounded=0;orthogonalLoop=1;jettySize=auto;html=1;exitX=0.75;exitY=1;exitDx=0;exitDy=0;entryX=0.809;entryY=-0.022;entryDx=0;entryDy=0;fontColor=#000000;entryPerimeter=0;" edge="1" parent="YYtEiXDmxrUHjdfIpiJD-1" source="YYtEiXDmxrUHjdfIpiJD-27" target="YYtEiXDmxrUHjdfIpiJD-17">
          <mxGeometry relative="1" as="geometry">
            <Array as="points">
              <mxPoint x="542" y="460" />
              <mxPoint x="214" y="460" />
            </Array>
          </mxGeometry>
        </mxCell>
        <mxCell id="YYtEiXDmxrUHjdfIpiJD-37" style="edgeStyle=orthogonalEdgeStyle;rounded=0;orthogonalLoop=1;jettySize=auto;html=1;exitX=1;exitY=0.5;exitDx=0;exitDy=0;fontColor=#000000;entryX=0;entryY=0.5;entryDx=0;entryDy=0;" edge="1" parent="YYtEiXDmxrUHjdfIpiJD-1" source="YYtEiXDmxrUHjdfIpiJD-35" target="YYtEiXDmxrUHjdfIpiJD-34">
          <mxGeometry relative="1" as="geometry" />
        </mxCell>
        <mxCell id="YYtEiXDmxrUHjdfIpiJD-40" style="edgeStyle=orthogonalEdgeStyle;rounded=0;orthogonalLoop=1;jettySize=auto;html=1;exitX=1;exitY=0.5;exitDx=0;exitDy=0;fontColor=#000000;" edge="1" parent="YYtEiXDmxrUHjdfIpiJD-1" source="YYtEiXDmxrUHjdfIpiJD-38" target="YYtEiXDmxrUHjdfIpiJD-27">
          <mxGeometry relative="1" as="geometry" />
        </mxCell>
        <mxCell id="YYtEiXDmxrUHjdfIpiJD-44" style="edgeStyle=orthogonalEdgeStyle;rounded=0;orthogonalLoop=1;jettySize=auto;html=1;exitX=0.5;exitY=1;exitDx=0;exitDy=0;entryX=0.25;entryY=0;entryDx=0;entryDy=0;fontColor=#000000;" edge="1" parent="YYtEiXDmxrUHjdfIpiJD-1" source="YYtEiXDmxrUHjdfIpiJD-34" target="YYtEiXDmxrUHjdfIpiJD-17">
          <mxGeometry relative="1" as="geometry">
            <Array as="points">
              <mxPoint x="410" y="430" />
              <mxPoint x="147" y="430" />
            </Array>
          </mxGeometry>
        </mxCell>
        <mxCell id="YYtEiXDmxrUHjdfIpiJD-54" style="edgeStyle=orthogonalEdgeStyle;rounded=0;orthogonalLoop=1;jettySize=auto;html=1;exitX=1;exitY=0.5;exitDx=0;exitDy=0;entryX=0;entryY=0.5;entryDx=0;entryDy=0;fontColor=#000000;" edge="1" parent="YYtEiXDmxrUHjdfIpiJD-1" source="YYtEiXDmxrUHjdfIpiJD-34" target="YYtEiXDmxrUHjdfIpiJD-52">
          <mxGeometry relative="1" as="geometry" />
        </mxCell>
        <mxCell id="YYtEiXDmxrUHjdfIpiJD-4" value="device-shadow详情" style="swimlane;startSize=20;" vertex="1" parent="YYtEiXDmxrUHjdfIpiJD-1">
          <mxGeometry x="600" y="20" width="580" height="650" as="geometry" />
        </mxCell>
        <mxCell id="YYtEiXDmxrUHjdfIpiJD-56" style="edgeStyle=orthogonalEdgeStyle;rounded=0;orthogonalLoop=1;jettySize=auto;html=1;exitX=0.5;exitY=1;exitDx=0;exitDy=0;fontColor=#000000;" edge="1" parent="YYtEiXDmxrUHjdfIpiJD-4" source="YYtEiXDmxrUHjdfIpiJD-52" target="YYtEiXDmxrUHjdfIpiJD-55">
          <mxGeometry relative="1" as="geometry" />
        </mxCell>
        <mxCell id="YYtEiXDmxrUHjdfIpiJD-52" value="新增设备信息" style="rounded=0;whiteSpace=wrap;html=1;labelBackgroundColor=default;fontColor=#000000;" vertex="1" parent="YYtEiXDmxrUHjdfIpiJD-4">
          <mxGeometry x="136.5" y="272" width="120" height="40" as="geometry" />
        </mxCell>
        <mxCell id="YYtEiXDmxrUHjdfIpiJD-61" value="是" style="edgeStyle=orthogonalEdgeStyle;rounded=0;orthogonalLoop=1;jettySize=auto;html=1;fontColor=#000000;" edge="1" parent="YYtEiXDmxrUHjdfIpiJD-4" source="YYtEiXDmxrUHjdfIpiJD-55" target="YYtEiXDmxrUHjdfIpiJD-57">
          <mxGeometry relative="1" as="geometry">
            <Array as="points">
              <mxPoint x="286.5" y="360" />
              <mxPoint x="286.5" y="360" />
            </Array>
          </mxGeometry>
        </mxCell>
        <mxCell id="YYtEiXDmxrUHjdfIpiJD-68" value="否" style="edgeStyle=orthogonalEdgeStyle;rounded=0;orthogonalLoop=1;jettySize=auto;html=1;fontColor=#000000;" edge="1" parent="YYtEiXDmxrUHjdfIpiJD-4" source="YYtEiXDmxrUHjdfIpiJD-55" target="YYtEiXDmxrUHjdfIpiJD-67">
          <mxGeometry relative="1" as="geometry" />
        </mxCell>
        <mxCell id="YYtEiXDmxrUHjdfIpiJD-55" value="空间id是否存在" style="rhombus;whiteSpace=wrap;html=1;labelBackgroundColor=default;fontColor=#000000;" vertex="1" parent="YYtEiXDmxrUHjdfIpiJD-4">
          <mxGeometry x="136.5" y="335" width="120" height="50" as="geometry" />
        </mxCell>
        <mxCell id="YYtEiXDmxrUHjdfIpiJD-66" value="" style="edgeStyle=orthogonalEdgeStyle;rounded=0;orthogonalLoop=1;jettySize=auto;html=1;fontColor=#000000;" edge="1" parent="YYtEiXDmxrUHjdfIpiJD-4" source="YYtEiXDmxrUHjdfIpiJD-57" target="YYtEiXDmxrUHjdfIpiJD-62">
          <mxGeometry relative="1" as="geometry" />
        </mxCell>
        <mxCell id="YYtEiXDmxrUHjdfIpiJD-57" value="查询空间信息并给设备空间树字段赋值" style="rounded=0;whiteSpace=wrap;html=1;labelBackgroundColor=default;fontColor=#000000;" vertex="1" parent="YYtEiXDmxrUHjdfIpiJD-4">
          <mxGeometry x="348.5" y="340" width="120" height="40" as="geometry" />
        </mxCell>
        <mxCell id="YYtEiXDmxrUHjdfIpiJD-69" value="" style="edgeStyle=orthogonalEdgeStyle;rounded=0;orthogonalLoop=1;jettySize=auto;html=1;fontColor=#000000;" edge="1" parent="YYtEiXDmxrUHjdfIpiJD-4" source="YYtEiXDmxrUHjdfIpiJD-62" target="YYtEiXDmxrUHjdfIpiJD-67">
          <mxGeometry relative="1" as="geometry" />
        </mxCell>
        <mxCell id="YYtEiXDmxrUHjdfIpiJD-62" value="查询空间对应的项目信息并给项目空间id字段赋值" style="rounded=0;whiteSpace=wrap;html=1;labelBackgroundColor=default;fontColor=#000000;" vertex="1" parent="YYtEiXDmxrUHjdfIpiJD-4">
          <mxGeometry x="343.5" y="427" width="130" height="50" as="geometry" />
        </mxCell>
        <mxCell id="YYtEiXDmxrUHjdfIpiJD-72" style="edgeStyle=orthogonalEdgeStyle;rounded=0;orthogonalLoop=1;jettySize=auto;html=1;exitX=0.5;exitY=1;exitDx=0;exitDy=0;entryX=0.5;entryY=0;entryDx=0;entryDy=0;fontColor=#000000;" edge="1" parent="YYtEiXDmxrUHjdfIpiJD-4" source="YYtEiXDmxrUHjdfIpiJD-67" target="YYtEiXDmxrUHjdfIpiJD-71">
          <mxGeometry relative="1" as="geometry" />
        </mxCell>
        <mxCell id="YYtEiXDmxrUHjdfIpiJD-67" value="新增设备&lt;br&gt;dm_entity" style="rounded=0;whiteSpace=wrap;html=1;labelBackgroundColor=default;fontColor=#000000;" vertex="1" parent="YYtEiXDmxrUHjdfIpiJD-4">
          <mxGeometry x="131.5" y="428" width="130" height="47" as="geometry" />
        </mxCell>
        <mxCell id="YYtEiXDmxrUHjdfIpiJD-76" value="是" style="edgeStyle=orthogonalEdgeStyle;rounded=0;orthogonalLoop=1;jettySize=auto;html=1;exitX=1;exitY=0.5;exitDx=0;exitDy=0;entryX=0;entryY=0.5;entryDx=0;entryDy=0;fontColor=#000000;dashed=1;" edge="1" parent="YYtEiXDmxrUHjdfIpiJD-4" source="YYtEiXDmxrUHjdfIpiJD-71" target="YYtEiXDmxrUHjdfIpiJD-74">
          <mxGeometry relative="1" as="geometry" />
        </mxCell>
        <mxCell id="YYtEiXDmxrUHjdfIpiJD-78" style="edgeStyle=orthogonalEdgeStyle;rounded=0;orthogonalLoop=1;jettySize=auto;html=1;exitX=0.5;exitY=1;exitDx=0;exitDy=0;entryX=0.5;entryY=0;entryDx=0;entryDy=0;fontColor=#000000;" edge="1" parent="YYtEiXDmxrUHjdfIpiJD-4" source="YYtEiXDmxrUHjdfIpiJD-71" target="YYtEiXDmxrUHjdfIpiJD-77">
          <mxGeometry relative="1" as="geometry" />
        </mxCell>
        <mxCell id="YYtEiXDmxrUHjdfIpiJD-79" value="否" style="edgeLabel;html=1;align=center;verticalAlign=middle;resizable=0;points=[];fontColor=#000000;" vertex="1" connectable="0" parent="YYtEiXDmxrUHjdfIpiJD-78">
          <mxGeometry x="0.1957" y="-2" relative="1" as="geometry">
            <mxPoint as="offset" />
          </mxGeometry>
        </mxCell>
        <mxCell id="YYtEiXDmxrUHjdfIpiJD-71" value="如果是 欧瑞博网关模型" style="rhombus;whiteSpace=wrap;html=1;labelBackgroundColor=default;fontColor=#000000;" vertex="1" parent="YYtEiXDmxrUHjdfIpiJD-4">
          <mxGeometry x="100" y="502" width="192.5" height="50" as="geometry" />
        </mxCell>
        <mxCell id="YYtEiXDmxrUHjdfIpiJD-74" value="，则发送一下kafka消息topic:&lt;br&gt;uslink-adaptor-gateway.added" style="rounded=0;whiteSpace=wrap;html=1;labelBackgroundColor=default;fontColor=#000000;" vertex="1" parent="YYtEiXDmxrUHjdfIpiJD-4">
          <mxGeometry x="382.5" y="507" width="180" height="39.5" as="geometry" />
        </mxCell>
        <mxCell id="YYtEiXDmxrUHjdfIpiJD-75" style="edgeStyle=orthogonalEdgeStyle;rounded=0;orthogonalLoop=1;jettySize=auto;html=1;exitX=0.5;exitY=1;exitDx=0;exitDy=0;fontColor=#000000;" edge="1" parent="YYtEiXDmxrUHjdfIpiJD-4" source="YYtEiXDmxrUHjdfIpiJD-74" target="YYtEiXDmxrUHjdfIpiJD-74">
          <mxGeometry relative="1" as="geometry" />
        </mxCell>
        <mxCell id="YYtEiXDmxrUHjdfIpiJD-77" value="新增设备&lt;br&gt;dm_shadow_attributes" style="rounded=0;whiteSpace=wrap;html=1;labelBackgroundColor=default;fontColor=#000000;" vertex="1" parent="YYtEiXDmxrUHjdfIpiJD-4">
          <mxGeometry x="131.5" y="590" width="130" height="47" as="geometry" />
        </mxCell>
        <mxCell id="YYtEiXDmxrUHjdfIpiJD-80" value="新增设备信息" style="rounded=0;whiteSpace=wrap;html=1;labelBackgroundColor=default;fontColor=#000000;" vertex="1" parent="YYtEiXDmxrUHjdfIpiJD-4">
          <mxGeometry x="141.5" y="30" width="120" height="40" as="geometry" />
        </mxCell>
        <mxCell id="YYtEiXDmxrUHjdfIpiJD-82" style="edgeStyle=orthogonalEdgeStyle;rounded=0;orthogonalLoop=1;jettySize=auto;html=1;exitX=1;exitY=0;exitDx=0;exitDy=0;entryX=0;entryY=0.5;entryDx=0;entryDy=0;fontColor=#000000;" edge="1" parent="YYtEiXDmxrUHjdfIpiJD-1" target="YYtEiXDmxrUHjdfIpiJD-80">
          <mxGeometry relative="1" as="geometry">
            <mxPoint x="578.5" y="286.25" as="sourcePoint" />
            <mxPoint x="727.5" y="70" as="targetPoint" />
            <Array as="points">
              <mxPoint x="579" y="70" />
            </Array>
          </mxGeometry>
        </mxCell>
        <mxCell id="YYtEiXDmxrUHjdfIpiJD-83" value="是" style="edgeStyle=orthogonalEdgeStyle;rounded=0;orthogonalLoop=1;jettySize=auto;html=1;fontColor=#000000;" edge="1" parent="1" source="YYtEiXDmxrUHjdfIpiJD-85" target="YYtEiXDmxrUHjdfIpiJD-87">
          <mxGeometry relative="1" as="geometry">
            <Array as="points">
              <mxPoint x="1086.5" y="348" />
              <mxPoint x="1086.5" y="348" />
            </Array>
          </mxGeometry>
        </mxCell>
        <mxCell id="YYtEiXDmxrUHjdfIpiJD-84" value="否" style="edgeStyle=orthogonalEdgeStyle;rounded=0;orthogonalLoop=1;jettySize=auto;html=1;fontColor=#000000;" edge="1" parent="1" source="YYtEiXDmxrUHjdfIpiJD-85" target="YYtEiXDmxrUHjdfIpiJD-90">
          <mxGeometry relative="1" as="geometry" />
        </mxCell>
        <mxCell id="YYtEiXDmxrUHjdfIpiJD-85" value="空间id是否存在" style="rhombus;whiteSpace=wrap;html=1;labelBackgroundColor=default;fontColor=#000000;" vertex="1" parent="1">
          <mxGeometry x="936.5" y="323" width="120" height="50" as="geometry" />
        </mxCell>
        <mxCell id="YYtEiXDmxrUHjdfIpiJD-86" value="" style="edgeStyle=orthogonalEdgeStyle;rounded=0;orthogonalLoop=1;jettySize=auto;html=1;fontColor=#000000;" edge="1" parent="1" source="YYtEiXDmxrUHjdfIpiJD-87" target="YYtEiXDmxrUHjdfIpiJD-89">
          <mxGeometry relative="1" as="geometry" />
        </mxCell>
        <mxCell id="YYtEiXDmxrUHjdfIpiJD-87" value="查询空间信息并给设备空间树字段赋值" style="rounded=0;whiteSpace=wrap;html=1;labelBackgroundColor=default;fontColor=#000000;" vertex="1" parent="1">
          <mxGeometry x="1148.5" y="328" width="120" height="40" as="geometry" />
        </mxCell>
        <mxCell id="YYtEiXDmxrUHjdfIpiJD-88" value="" style="edgeStyle=orthogonalEdgeStyle;rounded=0;orthogonalLoop=1;jettySize=auto;html=1;fontColor=#000000;" edge="1" parent="1" source="YYtEiXDmxrUHjdfIpiJD-89" target="YYtEiXDmxrUHjdfIpiJD-90">
          <mxGeometry relative="1" as="geometry" />
        </mxCell>
        <mxCell id="YYtEiXDmxrUHjdfIpiJD-89" value="查询空间对应的项目信息并给项目空间id字段赋值" style="rounded=0;whiteSpace=wrap;html=1;labelBackgroundColor=default;fontColor=#000000;" vertex="1" parent="1">
          <mxGeometry x="1143.5" y="403" width="130" height="50" as="geometry" />
        </mxCell>
        <mxCell id="YYtEiXDmxrUHjdfIpiJD-90" value="新增设备&lt;br&gt;dm_entity" style="rounded=0;whiteSpace=wrap;html=1;labelBackgroundColor=default;fontColor=#000000;" vertex="1" parent="1">
          <mxGeometry x="931.5" y="404" width="130" height="47" as="geometry" />
        </mxCell>
        <mxCell id="YYtEiXDmxrUHjdfIpiJD-91" style="edgeStyle=orthogonalEdgeStyle;rounded=0;orthogonalLoop=1;jettySize=auto;html=1;exitX=0.5;exitY=1;exitDx=0;exitDy=0;entryX=0.5;entryY=0;entryDx=0;entryDy=0;fontColor=#000000;" edge="1" parent="1" source="YYtEiXDmxrUHjdfIpiJD-80" target="YYtEiXDmxrUHjdfIpiJD-85">
          <mxGeometry relative="1" as="geometry" />
        </mxCell>
      </root>
    </mxGraphModel>
  </diagram>
  <diagram id="IIHzgTZZQpOI1J2cLflT" name="第 4 页">
    <mxGraphModel dx="1278" dy="547" grid="1" gridSize="10" guides="1" tooltips="1" connect="1" arrows="1" fold="1" page="1" pageScale="1" pageWidth="827" pageHeight="1169" math="0" shadow="0">
      <root>
        <mxCell id="0" />
        <mxCell id="1" parent="0" />
        <mxCell id="V4lOG10ohuE03VzAjMsF-1" value="Pool" style="swimlane;childLayout=stackLayout;resizeParent=1;resizeParentMax=0;startSize=20;" vertex="1" parent="1">
          <mxGeometry x="230" y="140" width="360" height="480" as="geometry" />
        </mxCell>
        <mxCell id="V4lOG10ohuE03VzAjMsF-2" value="Lane 1" style="swimlane;startSize=20;" vertex="1" parent="V4lOG10ohuE03VzAjMsF-1">
          <mxGeometry y="20" width="120" height="460" as="geometry" />
        </mxCell>
        <mxCell id="V4lOG10ohuE03VzAjMsF-3" value="Lane 2" style="swimlane;startSize=20;" vertex="1" parent="V4lOG10ohuE03VzAjMsF-1">
          <mxGeometry x="120" y="20" width="120" height="460" as="geometry" />
        </mxCell>
        <mxCell id="V4lOG10ohuE03VzAjMsF-4" value="Lane 3" style="swimlane;startSize=20;" vertex="1" parent="V4lOG10ohuE03VzAjMsF-1">
          <mxGeometry x="240" y="20" width="120" height="460" as="geometry" />
        </mxCell>
        <mxCell id="V4lOG10ohuE03VzAjMsF-5" value="Pool" style="swimlane;childLayout=stackLayout;resizeParent=1;resizeParentMax=0;startSize=20;" vertex="1" parent="1">
          <mxGeometry x="230" y="140" width="360" height="1010" as="geometry" />
        </mxCell>
        <mxCell id="V4lOG10ohuE03VzAjMsF-6" value="利尔达APP" style="swimlane;startSize=20;" vertex="1" parent="V4lOG10ohuE03VzAjMsF-5">
          <mxGeometry y="20" width="120" height="990" as="geometry" />
        </mxCell>
        <mxCell id="V4lOG10ohuE03VzAjMsF-7" value="Lane 2" style="swimlane;startSize=20;" vertex="1" parent="V4lOG10ohuE03VzAjMsF-5">
          <mxGeometry x="120" y="20" width="120" height="990" as="geometry" />
        </mxCell>
        <mxCell id="V4lOG10ohuE03VzAjMsF-8" value="Lane 3" style="swimlane;startSize=20;" vertex="1" parent="V4lOG10ohuE03VzAjMsF-5">
          <mxGeometry x="240" y="20" width="120" height="990" as="geometry" />
        </mxCell>
      </root>
    </mxGraphModel>
  </diagram>
</mxfile>
